<svg xmlns="http://www.w3.org/2000/svg" width="225" height="225" viewBox="0 0 225 225" version="1.1">
	<path d="M 146.223 50.557 C 144.010 52.106, 144 52.250, 144 81.985 C 144 107.808, 143.787 112.070, 142.429 113.429 C 140.352 115.506, 140.188 115.478, 133.910 112.018 C 130.934 110.378, 127.782 109.028, 126.905 109.018 C 123.359 108.978, 120.594 115.370, 122.765 118.589 C 124.238 120.771, 147.941 134, 150.379 134 C 155.874 134, 156 133.040, 156 91.277 C 156 54.333, 155.930 52.930, 154 51 C 151.597 48.597, 149.214 48.462, 146.223 50.557 M 120 147.353 C 120 147.547, 118.915 150.697, 117.589 154.353 C 115.813 159.251, 115.521 161, 116.482 161 C 117.199 161, 118.045 160.325, 118.362 159.500 C 118.698 158.623, 120.197 158, 121.969 158 C 123.997 158, 125 158.497, 125 159.500 C 125 160.325, 125.655 161, 126.455 161 C 127.627 161, 127.432 159.728, 125.455 154.477 C 124.105 150.890, 123 147.740, 123 147.477 C 123 147.215, 122.325 147, 121.500 147 C 120.675 147, 120 147.159, 120 147.353 M 153 154 C 153 158, 153.429 161, 154 161 C 154.571 161, 155 158, 155 154 C 155 150, 154.571 147, 154 147 C 153.429 147, 153 150, 153 154 M 180.844 149.750 C 180.632 152.142, 180.932 156.043, 181.536 158.750 C 181.865 160.224, 182.774 161, 184.174 161 C 186.180 161, 186.209 160.889, 184.655 159.171 C 182.431 156.713, 182.487 153.009, 184.750 152.968 C 186.371 152.939, 186.364 152.833, 184.650 151.535 C 183.632 150.764, 183.096 149.653, 183.459 149.067 C 183.821 148.480, 183.416 148, 182.559 148 C 181.702 148, 180.930 148.787, 180.844 149.750 M 120.183 152.904 C 119.217 155.675, 119.308 156, 121.052 156 C 123.107 156, 123.642 153.562, 122.116 151.154 C 121.490 150.166, 120.976 150.631, 120.183 152.904 M 130 156.158 C 130 159.795, 130.373 161, 131.500 161 C 132.588 161, 133 159.881, 133 156.927 C 133 153.588, 133.315 152.913, 134.750 153.185 C 135.973 153.417, 136.593 154.643, 136.810 157.258 C 137.270 162.802, 139.164 161.844, 138.805 156.250 L 138.500 151.500 134.250 151.408 L 130 151.315 130 156.158 M 143.029 151.961 C 142.220 152.473, 141.872 153.205, 142.255 153.588 C 142.638 153.971, 143.657 153.700, 144.518 152.985 C 145.736 151.974, 146.352 151.952, 147.284 152.884 C 148.650 154.250, 146.763 155.958, 143.857 155.985 C 141.963 156.002, 140.858 158.153, 141.887 159.818 C 142.274 160.443, 144.257 160.892, 146.295 160.815 C 149.963 160.677, 150 160.633, 150 156.445 C 150 151.365, 147.011 149.443, 143.029 151.961 M 158 151.380 C 158 151.680, 158.900 154.209, 160 157 C 162.394 163.075, 162.388 163, 160.500 163 C 159.675 163, 159 163.450, 159 164 C 159 164.550, 159.859 165, 160.908 165 C 162.355 165, 163.322 163.503, 164.908 158.806 C 167.285 151.766, 167.393 151, 166 151 C 165.450 151, 165 151.421, 165 151.935 C 165 152.449, 164.498 154.137, 163.884 155.685 L 162.768 158.500 161.565 155.060 C 160.560 152.187, 158 149.543, 158 151.380 M 171.250 151.662 C 168.857 152.628, 169.919 155.776, 173 156.850 C 177.144 158.295, 176.973 160.445, 172.781 159.606 C 170.446 159.139, 169.864 159.264, 170.659 160.059 C 172.343 161.743, 177.427 160.795, 177.820 158.725 C 178.053 157.494, 177.213 156.622, 175.078 155.877 C 173.385 155.287, 172 154.425, 172 153.961 C 172 152.449, 174.147 151.747, 175.287 152.887 C 176.959 154.559, 178.433 154.226, 177 152.500 C 175.762 151.008, 173.638 150.699, 171.250 151.662 M 188.362 152.500 C 187.473 154.815, 188.648 156.811, 191.111 157.172 C 192.339 157.353, 193.551 158.131, 193.806 158.902 C 194.168 160, 193.541 160.158, 190.915 159.633 C 188.483 159.147, 187.864 159.264, 188.659 160.059 C 190.343 161.743, 195.427 160.795, 195.820 158.725 C 196.053 157.494, 195.213 156.622, 193.078 155.877 C 191.385 155.287, 190 154.425, 190 153.961 C 190 152.449, 192.147 151.747, 193.287 152.887 C 194.959 154.559, 196.433 154.226, 195 152.500 C 194.315 151.675, 192.671 151, 191.346 151 C 190.021 151, 188.678 151.675, 188.362 152.500 M 144.540 157.347 C 143.208 158.321, 143.030 158.900, 143.896 159.436 C 145.583 160.478, 148 159.357, 148 157.531 C 148 155.644, 146.946 155.588, 144.540 157.347 M 51.052 171.389 C 50.443 172.977, 50.172 174.505, 50.451 174.784 C 50.729 175.062, 51.343 174.246, 51.816 172.969 L 52.675 170.647 53.298 173.030 C 53.640 174.340, 54.199 175.135, 54.539 174.795 C 54.878 174.455, 54.482 172.900, 53.658 171.338 L 52.160 168.500 51.052 171.389 M 56.030 171.550 C 56.057 174.136, 56.193 174.272, 57.134 172.654 C 57.903 171.330, 57.895 170.495, 57.104 169.704 C 56.299 168.899, 56.008 169.399, 56.030 171.550 M 58.649 171.233 C 58.328 172.461, 58.501 173.901, 59.033 174.433 C 59.656 175.056, 60 174.261, 60 172.200 C 60 168.460, 59.473 168.083, 58.649 171.233 M 62.009 171.476 C 61.423 173.017, 61.172 174.505, 61.451 174.784 C 61.729 175.062, 62.388 174.213, 62.915 172.895 C 63.571 171.257, 63.893 171.034, 63.937 172.191 C 63.971 173.121, 64.498 174.190, 65.107 174.566 C 65.866 175.035, 65.988 174.502, 65.495 172.875 C 64.304 168.944, 63.148 168.480, 62.009 171.476 M 67.136 171.750 C 67.032 174.236, 67.412 174.996, 68.750 174.985 C 69.874 174.975, 70.089 174.707, 69.351 174.235 C 68.719 173.831, 67.993 172.375, 67.737 171 C 67.344 168.883, 67.251 168.998, 67.136 171.750 M 71.295 171.970 L 72.471 175.087 73.307 172.579 C 74.033 170.400, 74.395 170.230, 76.071 171.277 C 78.436 172.753, 78.622 174.176, 76.336 173.299 C 75.217 172.869, 74.909 173.043, 75.395 173.830 C 76.316 175.320, 78.671 175.341, 79.581 173.868 C 79.966 173.246, 79.489 172.293, 78.520 171.751 C 77.082 170.947, 77.011 170.600, 78.130 169.860 C 79.085 169.228, 78.678 169.050, 76.788 169.272 C 75.296 169.447, 73.763 169.904, 73.380 170.287 C 72.997 170.670, 72.107 170.504, 71.401 169.918 C 70.363 169.056, 70.343 169.448, 71.295 171.970 M 81 172 C 81 174.196, 81.469 174.996, 82.750 174.985 C 84.248 174.972, 84.284 174.828, 83 173.985 C 81.667 173.109, 81.667 172.891, 83 172.015 C 84.333 171.140, 84.333 171.021, 83 170.945 C 81.990 170.887, 82.153 170.579, 83.500 170 C 85.408 169.180, 85.397 169.137, 83.250 169.070 C 81.401 169.013, 81 169.535, 81 172 M 92 172 C 92 174.479, 92.391 174.980, 94.250 174.884 C 95.943 174.797, 96.067 174.655, 94.750 174.311 C 92.749 173.788, 92.367 172.008, 94.250 171.985 C 95.083 171.974, 95 171.646, 94 171 C 92.775 170.208, 92.892 170.028, 94.642 170.015 C 96.130 170.005, 96.986 170.807, 97.447 172.645 C 98.179 175.560, 99.407 174.884, 100.439 171 C 101.050 168.701, 100.989 168.643, 99.670 170.279 C 98.429 171.820, 98.158 171.853, 97.650 170.529 C 97.327 169.688, 95.924 169, 94.531 169 C 92.385 169, 92 169.457, 92 172 M 102.035 170.934 C 100.444 173.908, 100.878 175.837, 102.500 173 C 103.541 171.179, 103.939 170.959, 103.965 172.191 C 103.984 173.121, 104.432 174.149, 104.960 174.475 C 105.529 174.827, 105.489 173.832, 104.862 172.034 C 103.618 168.466, 103.401 168.381, 102.035 170.934 M 107.136 171.750 C 107.032 174.236, 107.412 174.996, 108.750 174.985 C 109.874 174.975, 110.089 174.707, 109.351 174.235 C 108.719 173.831, 107.993 172.375, 107.737 171 C 107.344 168.883, 107.251 168.998, 107.136 171.750 M 111.304 171.500 C 111.465 173.959, 111.951 174.513, 114 174.573 C 115.375 174.614, 117.097 174.193, 117.826 173.638 C 118.760 172.927, 119.421 173.053, 120.061 174.064 C 121.108 175.719, 121.241 174.502, 120.370 171.250 C 120.038 170.012, 119.321 169, 118.776 169 C 118.232 169, 118.054 169.698, 118.382 170.552 C 118.709 171.406, 118.566 171.850, 118.064 171.540 C 117.562 171.229, 116.945 171.769, 116.692 172.738 C 116.412 173.810, 116.148 173.325, 116.016 171.500 C 115.820 168.772, 115.742 168.709, 115.150 170.809 C 114.793 172.079, 114.050 173.118, 113.500 173.118 C 112.950 173.118, 112.187 172.079, 111.804 170.809 C 111.214 168.851, 111.138 168.956, 111.304 171.500 M 121.649 169.765 C 122.281 170.169, 122.973 171.625, 123.187 173 C 123.538 175.262, 123.626 175.191, 124.114 172.250 C 124.579 169.450, 124.366 169.002, 122.577 169.015 C 121.313 169.025, 120.950 169.318, 121.649 169.765 M 126 172 C 126 174.479, 126.391 174.980, 128.250 174.884 C 129.943 174.797, 130.067 174.655, 128.750 174.311 C 127.787 174.059, 127 173.469, 127 173 C 127 172.531, 127.787 171.941, 128.750 171.689 C 130.243 171.299, 130.206 171.205, 128.500 171.046 L 126.500 170.859 128.500 170 C 130.408 169.180, 130.397 169.137, 128.250 169.070 C 126.401 169.013, 126 169.535, 126 172 M 133.252 172.500 C 133.263 174.700, 133.468 175.482, 133.707 174.238 C 133.946 172.994, 133.937 171.194, 133.687 170.238 C 133.437 169.282, 133.241 170.300, 133.252 172.500 M 137.362 170.500 C 136.620 172.433, 137.606 175, 139.091 175 C 139.938 175, 139.923 174.612, 139.036 173.544 C 137.561 171.766, 138.655 169.654, 140.653 170.420 C 141.463 170.731, 141.834 170.541, 141.493 169.989 C 140.567 168.490, 138.012 168.806, 137.362 170.500 M 143.150 171.750 C 143.022 174.529, 143.326 174.983, 145.250 174.884 C 146.846 174.802, 147.009 174.638, 145.810 174.322 C 144.881 174.077, 143.936 172.667, 143.710 171.188 C 143.340 168.761, 143.285 168.816, 143.150 171.750 M 147.958 170.550 C 146.896 171.831, 146.961 172.390, 148.336 173.764 C 149.833 175.261, 150.154 175.274, 151.537 173.892 C 153.225 172.204, 152.556 169, 150.515 169 C 149.817 169, 148.666 169.698, 147.958 170.550 M 154 172 C 154 174.459, 154.383 175.073, 155.750 174.810 C 156.854 174.597, 157.500 173.560, 157.500 172 C 157.500 170.440, 156.854 169.403, 155.750 169.190 C 154.383 168.927, 154 169.541, 154 172 M 160.035 170.934 C 158.701 173.428, 158.617 176.154, 159.939 174.064 C 160.689 172.880, 161.121 172.856, 162.411 173.926 C 163.804 175.082, 163.856 174.884, 162.889 172.112 C 161.617 168.462, 161.405 168.374, 160.035 170.934 M 165.136 171.750 C 165.032 174.236, 165.412 174.996, 166.750 174.985 C 167.874 174.975, 168.089 174.707, 167.351 174.235 C 166.719 173.831, 165.993 172.375, 165.737 171 C 165.344 168.883, 165.251 168.998, 165.136 171.750 M 169.232 172 C 169.232 173.925, 169.438 174.713, 169.689 173.750 C 169.941 172.787, 169.941 171.213, 169.689 170.250 C 169.438 169.287, 169.232 170.075, 169.232 172 M 171.667 169.667 C 170.516 170.817, 170.938 172, 172.500 172 C 173.325 172, 174 172.498, 174 173.107 C 174 173.748, 173.264 173.934, 172.250 173.548 C 170.916 173.040, 170.776 173.160, 171.663 174.054 C 173.292 175.696, 174.750 174.499, 174.750 171.518 C 174.750 169.148, 173.148 168.185, 171.667 169.667 M 176.184 171.741 C 176.395 173.574, 177.163 174.586, 178.500 174.795 C 180.157 175.054, 180.243 174.927, 179 174.054 C 177.667 173.117, 177.667 172.891, 179 172.015 C 180.333 171.140, 180.333 171.027, 179 171 C 177.667 170.973, 177.667 170.862, 179 170 C 180.206 169.221, 180.046 169.028, 178.184 169.015 C 176.245 169.002, 175.919 169.447, 176.184 171.741 M 149 172 C 149 173.289, 149.506 173.998, 150.250 173.750 C 150.938 173.521, 151.500 172.733, 151.500 172 C 151.500 171.267, 150.938 170.479, 150.250 170.250 C 149.506 170.002, 149 170.711, 149 172 M 140.638 173.500 C 140.955 174.325, 141.391 175, 141.607 175 C 141.823 175, 142 174.325, 142 173.500 C 142 172.675, 141.564 172, 141.031 172 C 140.499 172, 140.322 172.675, 140.638 173.500 M 155 173 C 155 173.550, 155.450 174, 156 174 C 156.550 174, 157 173.550, 157 173 C 157 172.450, 156.550 172, 156 172 C 155.450 172, 155 172.450, 155 173" stroke="none" fill="black" fill-rule="evenodd"/>
</svg>