<svg xmlns="http://www.w3.org/2000/svg" width="920" height="601" viewBox="0 0 920 601" version="1.1">
	<path d="M 250.500 0.945 C 244.409 3.438, 243.280 9.228, 247.434 16.661 C 248.845 19.186, 250 21.400, 250 21.581 C 250 21.761, 248.313 22.198, 246.250 22.552 C 231.270 25.117, 209.268 30.760, 207.136 32.584 C 206.405 33.208, 226.465 75.241, 227.725 75.725 C 228.439 75.999, 234.081 75.075, 240.262 73.673 C 252.626 70.868, 266.192 68.494, 275.598 67.490 C 280.390 66.978, 282.025 67.168, 283.234 68.377 C 284.079 69.222, 289.345 78.939, 294.935 89.970 C 301.841 103.597, 304.682 110.145, 303.799 110.399 C 303.085 110.605, 295.750 111.729, 287.500 112.895 C 274.254 114.769, 266.491 116.372, 252.687 120.085 C 250.586 120.650, 249.015 121.647, 249.187 122.305 C 249.359 122.962, 254.376 132.874, 260.335 144.331 C 266.295 155.789, 271.020 165.302, 270.835 165.471 C 270.651 165.641, 265.775 167.355, 260 169.279 C 249.354 172.828, 230.816 180.764, 226.370 183.677 C 225.032 184.554, 223.614 184.949, 223.219 184.555 C 222.823 184.161, 218.150 174.313, 212.834 162.670 C 204.033 143.394, 203.317 141.381, 204.834 140.175 C 208.403 137.336, 228.076 128.260, 237.785 124.973 C 243.403 123.072, 248 121.190, 248 120.793 C 248 120.395, 243.306 110.374, 237.568 98.523 L 227.137 76.977 221.318 79.115 C 212.297 82.430, 202.253 87.238, 193.588 92.390 C 187.591 95.955, 185.481 96.780, 184.871 95.797 C 184.429 95.084, 180.606 86.175, 176.377 76 C 172.147 65.825, 168.489 57.275, 168.248 57 C 168.006 56.725, 163.851 60.624, 159.015 65.665 C 149.616 75.462, 141 86.767, 141 89.302 C 141 91.055, 152.749 122.130, 153.811 123.185 C 154.190 123.561, 161.250 118.062, 169.500 110.963 C 177.750 103.865, 184.759 98.045, 185.075 98.029 C 185.391 98.013, 187.826 103.512, 190.486 110.250 C 193.147 116.987, 197.018 126.441, 199.090 131.257 L 202.856 140.013 187.678 151.638 C 179.330 158.032, 171.903 163.737, 171.174 164.317 C 169.402 165.725, 169.631 166.193, 161.515 144.586 C 157.673 134.358, 154.208 126.105, 153.816 126.245 C 153.424 126.385, 147.917 133.423, 141.578 141.885 C 130.926 156.105, 129.984 157.089, 129.146 154.885 C 122.090 136.344, 118.552 127.372, 118.063 126.784 C 117.736 126.390, 115.043 130.440, 112.078 135.784 C 109.114 141.128, 104.464 148.989, 101.745 153.254 C 95.791 162.594, 95.495 165.457, 99.641 173.574 C 101.306 176.833, 103.696 182.088, 104.951 185.250 C 106.206 188.412, 107.518 190.990, 107.866 190.978 C 108.215 190.967, 113.225 183.776, 119 175 C 124.775 166.224, 129.725 159.035, 130 159.026 C 130.275 159.016, 133.159 166.634, 136.410 175.953 C 139.660 185.273, 142.647 193.428, 143.047 194.076 C 143.826 195.337, 144.366 194.790, 159.439 177.500 C 164.233 172, 168.510 167.370, 168.942 167.212 C 169.373 167.054, 173.415 176.071, 177.924 187.251 C 182.432 198.430, 186.520 208.223, 187.008 209.012 C 187.748 210.211, 188.274 210.097, 190.197 208.324 C 194.029 204.790, 220.400 186.705, 221.877 186.599 C 222.689 186.540, 228.019 195.407, 234.877 208.224 C 241.269 220.172, 246.950 229.763, 247.500 229.539 C 248.050 229.314, 253.675 226.792, 260 223.933 C 266.325 221.075, 276.865 216.994, 283.421 214.863 C 289.978 212.733, 295.523 210.811, 295.742 210.591 C 295.962 210.371, 290.961 200.811, 284.628 189.346 C 278.296 177.881, 272.849 167.798, 272.524 166.940 C 272.050 165.690, 273.280 165.119, 278.716 164.067 C 282.447 163.344, 294.930 160.780, 306.456 158.369 C 323.677 154.766, 327.645 154.216, 328.716 155.287 C 330.890 157.461, 354.008 198.178, 353.518 198.970 C 353.267 199.376, 350.334 199.994, 347 200.342 C 340 201.074, 298.862 209.892, 297.766 210.896 C 297.362 211.266, 303.112 221.796, 310.543 234.296 C 325.574 259.582, 323.142 257.345, 333 254.949 C 336.581 254.078, 367.683 249.677, 378.529 248.506 C 383.824 247.934, 384.786 248.106, 386.421 249.912 C 387.445 251.044, 395.845 262.889, 405.088 276.235 L 421.893 300.500 416.946 300.802 C 414.226 300.969, 412 301.342, 412 301.633 C 412 301.924, 419.585 315.288, 428.857 331.331 C 451.423 370.382, 449.494 366.111, 446.882 371.232 C 445.692 373.565, 433.138 395.505, 418.985 419.987 C 353.559 533.164, 322.164 587.908, 321.519 589.939 C 320.538 593.030, 322.560 597.309, 325.947 599.309 C 331.737 602.730, 335.619 600.965, 340.377 592.751 C 342.863 588.460, 447.613 406.688, 455.336 393.262 C 457.626 389.282, 459.725 386.024, 460 386.024 C 460.275 386.023, 463.264 390.855, 466.642 396.761 C 470.020 402.668, 480.312 420.550, 489.512 436.500 C 512.100 475.662, 535.449 516.185, 560.580 559.842 C 572.086 579.830, 582.574 597.268, 583.886 598.592 C 585.199 599.916, 587.379 601, 588.732 601 C 592.323 601, 596.738 598.046, 598.115 594.723 C 599.146 592.234, 598.999 591.177, 597.073 587.213 C 595.004 582.955, 557.178 517.108, 499.006 416.500 C 471.522 368.967, 472 369.849, 472 366.661 C 472 365.318, 479.912 350.585, 489.613 333.861 C 499.301 317.163, 507.439 302.962, 507.699 302.305 C 508.020 301.495, 506.534 301.012, 503.083 300.805 L 497.995 300.500 515.964 274.500 C 528.033 257.036, 534.594 248.396, 535.946 248.183 C 538.609 247.764, 593.260 256.020, 594.334 257.004 C 594.792 257.424, 588.575 267.760, 580.518 279.973 C 572.461 292.186, 565.679 302.701, 565.447 303.339 C 565.052 304.429, 604.845 316.563, 612.619 317.723 C 615.671 318.178, 616.069 317.725, 631.119 296.643 C 639.579 284.793, 646.848 275.076, 647.273 275.049 C 647.698 275.022, 656.649 280.411, 667.164 287.025 C 677.679 293.639, 686.519 298.814, 686.809 298.525 C 687.098 298.235, 692.839 288.436, 699.565 276.749 C 707.860 262.337, 711.491 255.127, 710.850 254.340 C 708.821 251.851, 674.896 230.826, 673.669 231.297 C 672.953 231.572, 668.832 238.030, 664.512 245.648 C 658.266 256.661, 648.921 272.127, 647.513 273.779 C 647.382 273.932, 636.440 270.220, 623.198 265.529 C 609.955 260.838, 598.643 257, 598.060 257 C 597.477 257, 597.002 256.663, 597.004 256.250 C 597.006 255.838, 602.839 245.605, 609.965 233.512 C 617.092 221.418, 622.603 211.233, 622.212 210.878 C 621.820 210.523, 609.350 207.628, 594.500 204.445 C 579.650 201.261, 567.202 198.397, 566.837 198.078 C 566.133 197.464, 588.709 157.862, 591.163 155.409 C 592.426 154.146, 596.035 154.668, 619.518 159.513 C 634.318 162.566, 647.038 164.938, 647.785 164.782 C 648.959 164.538, 671 123.735, 671 121.805 C 671 120.241, 646.548 114.685, 629.839 112.452 C 623.053 111.545, 616.930 110.634, 616.233 110.427 C 614.607 109.943, 635.367 68.180, 637.673 67.295 C 640.242 66.310, 669.796 70.815, 681.687 74.005 C 687.632 75.600, 692.747 76.589, 693.054 76.202 C 694.176 74.792, 713.191 32.859, 712.851 32.546 C 711.491 31.295, 691.105 25.683, 681.895 24.025 C 675.721 22.913, 670.509 21.842, 670.312 21.645 C 670.115 21.448, 671.083 19.310, 672.465 16.893 C 677.204 8.602, 674.833 1.659, 666.818 0.358 C 664.074 -0.087, 662.819 0.287, 660.807 2.148 C 659.409 3.441, 649.486 19.800, 638.757 38.500 C 620.804 69.789, 593.711 116.843, 549.509 193.500 C 530.698 226.122, 490.725 295.480, 472.151 327.726 C 465.743 338.850, 460.275 347.957, 460 347.964 C 459.725 347.970, 457.636 344.718, 455.358 340.738 C 449.942 331.276, 436.540 308.007, 413.752 268.500 C 403.601 250.900, 386.608 221.425, 375.991 203 C 365.374 184.575, 348.510 155.325, 338.516 138 C 328.523 120.675, 307.161 83.550, 291.046 55.500 C 274.931 27.450, 260.653 3.487, 259.317 2.250 C 256.816 -0.067, 253.993 -0.484, 250.500 0.945 M 743.724 75.775 C 739.448 86.074, 735.575 95.097, 735.118 95.827 C 734.475 96.854, 732.727 96.194, 727.393 92.915 C 719.918 88.317, 707.917 82.557, 698.682 79.134 L 692.863 76.977 682.432 98.523 C 676.694 110.374, 672.002 120.392, 672.005 120.785 C 672.008 121.178, 676.395 123.009, 681.755 124.853 C 691.418 128.177, 711.973 137.601, 715.156 140.166 C 716.662 141.379, 716.046 143.171, 708.336 160 C 703.675 170.175, 699.256 179.926, 698.516 181.668 L 697.171 184.836 709.335 193.104 C 716.026 197.652, 723.847 203.355, 726.716 205.779 L 731.932 210.184 735.784 201.842 C 737.903 197.254, 742.023 187.537, 744.939 180.250 C 747.856 172.963, 750.525 167.020, 750.871 167.045 C 751.217 167.070, 756.900 173.339, 763.500 180.975 C 770.100 188.611, 775.781 194.891, 776.124 194.930 C 776.466 194.968, 779.616 186.902, 783.124 177.004 C 786.631 167.106, 789.725 159.007, 790 159.006 C 790.275 159.005, 795.225 166.192, 801 174.978 C 806.775 183.763, 811.738 190.962, 812.029 190.976 C 812.588 191.001, 824.002 165.497, 823.997 164.236 C 823.995 163.831, 819.060 154.992, 813.032 144.592 C 802.333 126.138, 802.045 125.754, 800.989 128.592 C 800.394 130.192, 798.160 136, 796.023 141.500 C 793.887 147, 791.645 152.798, 791.043 154.385 C 789.948 157.267, 789.937 157.256, 778.422 141.885 C 772.083 133.423, 766.573 126.384, 766.177 126.243 C 765.781 126.101, 762.380 134.255, 758.619 144.361 C 754.858 154.468, 751.423 163.316, 750.985 164.024 C 750.102 165.453, 750.482 165.708, 730.212 150.090 C 723.496 144.915, 718 140.131, 718 139.461 C 718 138.790, 721.093 130.875, 724.873 121.871 C 728.654 112.867, 732.346 103.806, 733.079 101.735 C 733.813 99.665, 734.737 98.090, 735.135 98.235 C 735.532 98.381, 742.446 104.125, 750.500 111 C 758.554 117.875, 765.448 123.600, 765.822 123.722 C 766.473 123.935, 776.084 99.372, 778.284 91.871 C 779.298 88.415, 779.115 87.915, 774.455 81.371 C 769.809 74.848, 753.400 56.972, 752.107 57.025 C 751.773 57.039, 748.001 65.477, 743.724 75.775 M 646.824 168.750 C 641.406 178.017, 623.953 210.286, 624.216 210.549 C 624.390 210.723, 629.925 212.637, 636.516 214.801 C 643.107 216.966, 653.675 221.075, 660 223.933 C 666.325 226.792, 671.950 229.322, 672.500 229.556 C 673.432 229.953, 696 188.312, 696 186.195 C 696 184.730, 692.216 182.541, 680.848 177.431 C 671.468 173.214, 651.582 166, 649.339 166 C 648.840 166, 647.708 167.238, 646.824 168.750 M 95.082 208.478 C 88.331 217.015, 82.498 224, 82.118 224 C 81.738 224, 78.969 219.009, 75.964 212.909 C 72.959 206.809, 70.159 201.606, 69.743 201.346 C 68.848 200.787, 32.902 228.981, 33.359 229.883 C 33.531 230.222, 36.727 235.770, 40.462 242.211 L 47.252 253.923 51.659 250.890 C 58.418 246.240, 67.807 238.388, 75.068 231.314 L 81.636 224.915 88.068 241.435 C 91.606 250.522, 94.781 257.854, 95.124 257.728 C 95.467 257.603, 101.001 251.088, 107.421 243.250 C 113.841 235.412, 119.445 229, 119.872 229 C 120.300 229, 123.715 237.775, 127.462 248.500 C 131.208 259.225, 134.549 267.971, 134.887 267.936 C 135.224 267.901, 140.596 261.601, 146.825 253.936 C 153.054 246.271, 158.494 240, 158.915 240 C 159.335 240, 163.636 249.338, 168.473 260.750 C 173.309 272.163, 177.544 281.810, 177.883 282.189 C 178.222 282.568, 185.108 276.591, 193.184 268.908 L 207.868 254.937 211.240 260.719 C 213.095 263.898, 218.599 273.475, 223.472 282 C 228.344 290.525, 232.643 297.864, 233.025 298.310 C 234.013 299.462, 271.523 275.511, 271.395 273.810 C 271.223 271.509, 246.806 231, 245.591 231 C 244.975 231, 236.378 236.150, 226.486 242.444 C 216.594 248.738, 208.197 253.576, 207.827 253.194 C 207.457 252.812, 202.902 243.369, 197.703 232.209 C 192.505 221.049, 187.954 211.621, 187.591 211.258 C 187.227 210.894, 180.704 216.811, 173.094 224.406 L 159.258 238.216 156.276 230.358 C 154.636 226.036, 151.144 216.762, 148.516 209.750 C 145.888 202.738, 143.460 197.031, 143.119 197.068 C 142.779 197.106, 137.555 203.834, 131.512 212.018 C 124.958 220.893, 120.259 226.415, 119.870 225.700 C 119.510 225.040, 116.845 217.750, 113.946 209.500 C 111.047 201.250, 108.379 194.152, 108.015 193.728 C 107.652 193.303, 101.832 199.940, 95.082 208.478 M 811.494 194.250 C 811.250 194.938, 808.739 202.025, 805.913 210 C 803.088 217.975, 800.470 225.063, 800.097 225.752 C 799.673 226.534, 795.313 221.399, 788.459 212.046 C 782.432 203.819, 777.215 197.069, 776.866 197.044 C 776.517 197.020, 772.954 205.775, 768.949 216.500 C 764.944 227.225, 761.404 235.986, 761.083 235.968 C 760.763 235.951, 754.453 230.326, 747.063 223.468 C 739.672 216.611, 733.083 211, 732.421 211 C 731.759 211, 730.909 212.228, 730.532 213.729 C 730.155 215.230, 725.803 225.017, 720.861 235.479 L 711.875 254.500 726.688 268.696 C 734.834 276.503, 741.799 282.578, 742.164 282.196 C 742.529 281.813, 746.763 272.163, 751.572 260.750 C 756.382 249.338, 760.638 240, 761.030 240 C 761.422 240, 766.863 246.268, 773.121 253.930 C 779.380 261.591, 784.776 267.891, 785.113 267.930 C 785.451 267.968, 788.792 259.225, 792.538 248.500 C 796.285 237.775, 799.663 229, 800.045 229 C 800.756 229, 818.924 251.082, 822.671 256.500 L 824.746 259.500 817.922 279 L 811.099 298.500 817.800 305.340 C 821.485 309.102, 828.437 315.545, 833.249 319.657 C 841.709 326.887, 842.028 327.058, 842.889 324.817 C 853.807 296.399, 856.994 287.897, 856.964 287.264 C 856.944 286.844, 853.554 283.816, 849.429 280.537 C 845.304 277.257, 838.140 270.957, 833.507 266.537 L 825.085 258.500 831.353 242.676 C 834.800 233.973, 838.044 226.911, 838.560 226.984 C 839.077 227.057, 846.590 233.052, 855.255 240.308 C 863.920 247.564, 871.355 253.616, 871.776 253.757 C 872.342 253.947, 884.454 234.518, 886.651 229.895 C 886.925 229.320, 852.766 201.854, 850.936 201.177 C 850.455 200.999, 847.469 206.062, 844.301 212.427 C 841.133 218.792, 838.230 224, 837.851 224 C 837.471 224, 831.660 217.025, 824.936 208.500 C 818.212 199.975, 812.537 193, 812.324 193 C 812.111 193, 811.738 193.563, 811.494 194.250 M 23.950 266.052 C 11.052 272.094, 0.613 277.480, 0.751 278.020 C 0.888 278.561, 4.919 286.003, 9.708 294.558 C 17.946 309.276, 18.551 310.079, 20.957 309.479 C 28.279 307.655, 62 288.706, 62 286.416 C 62 285.355, 48.693 256.360, 47.793 255.460 C 47.577 255.243, 36.847 260.010, 23.950 266.052 M 871.070 257.250 C 870.585 258.488, 867.447 265.286, 864.095 272.357 C 860.743 279.428, 858.001 285.728, 858.002 286.357 C 858.005 288.811, 895.601 309.930, 900.057 309.982 C 901.031 309.993, 904.845 304.273, 910.236 294.713 C 914.978 286.304, 919.003 278.888, 919.179 278.231 C 919.367 277.530, 909.795 272.481, 896.024 266.018 C 883.112 259.958, 872.413 255, 872.249 255 C 872.085 255, 871.554 256.012, 871.070 257.250 M 311.500 260.393 C 295.726 265.110, 274.028 273.789, 274.010 275.388 C 273.998 276.455, 289.977 299.380, 298.309 310.250 C 301.577 314.512, 304.876 318, 305.642 318 C 306.408 318, 312.314 316.246, 318.767 314.103 C 329.561 310.518, 334.454 309.212, 350.101 305.742 L 355.702 304.500 340.101 281.077 C 331.520 268.194, 324.050 257.530, 323.500 257.379 C 322.950 257.227, 317.550 258.583, 311.500 260.393 M 79.476 272.575 C 71.789 279.492, 64.893 285.740, 64.151 286.460 C 63.023 287.555, 64.048 290.971, 70.401 307.277 C 74.580 318.006, 78 327.001, 78 327.266 C 78 327.531, 69.012 333.092, 58.026 339.624 C 47.041 346.156, 38.041 351.957, 38.026 352.516 C 38.012 353.075, 41.487 363.956, 45.750 376.695 L 53.500 399.858 73 387.453 C 83.725 380.630, 92.892 375.168, 93.371 375.314 C 93.851 375.461, 97.599 386.811, 101.701 400.536 C 105.803 414.262, 109.321 425.654, 109.520 425.853 C 109.718 426.052, 117.376 419.303, 126.537 410.857 C 135.697 402.411, 143.487 395.400, 143.846 395.277 C 144.206 395.155, 149.276 406.180, 155.113 419.777 C 160.949 433.375, 166.157 444.500, 166.684 444.500 C 167.782 444.500, 196.780 413.069, 198.889 409.594 C 200.189 407.452, 199.459 405.896, 187.536 385.403 C 180.528 373.356, 174.446 363.128, 174.020 362.673 C 173.594 362.218, 166.778 369.034, 158.873 377.819 C 150.968 386.604, 144.344 393.644, 144.152 393.465 C 143.961 393.285, 139.652 382.295, 134.577 369.041 L 125.349 344.944 110.101 358.972 C 101.715 366.687, 94.541 373, 94.160 373 C 93.344 373, 79 330.227, 79 327.795 C 79 326.438, 106.494 301.045, 108.806 300.266 C 109.188 300.138, 112.835 309.588, 116.912 321.266 C 120.988 332.945, 124.628 342.855, 125 343.288 C 125.372 343.722, 131.455 337.534, 138.518 329.538 C 145.580 321.542, 151.616 315.015, 151.929 315.034 C 152.243 315.052, 155.410 321.465, 158.967 329.284 C 162.524 337.103, 167.283 347.429, 169.544 352.231 L 173.654 360.963 187.437 345.481 C 195.017 336.967, 201.550 330, 201.954 330 C 202.358 330, 206.661 335.962, 211.515 343.250 C 216.370 350.538, 222.878 360.159, 225.979 364.632 L 231.616 372.764 242.058 363.210 C 247.801 357.956, 255.257 351.102, 258.626 347.979 L 264.751 342.301 250.297 322.401 C 242.348 311.455, 235.238 301.875, 234.498 301.111 C 233.358 299.936, 230.840 301.851, 218.062 313.611 C 209.763 321.250, 202.641 327.603, 202.236 327.729 C 201.831 327.855, 196.325 318.069, 190 305.983 C 183.675 293.897, 178.275 284.033, 178 284.063 C 177.725 284.094, 171.911 290.630, 165.079 298.589 C 158.248 306.547, 152.326 312.708, 151.919 312.279 C 151.265 311.590, 149.067 306.101, 137.483 276.220 C 135.930 272.216, 134.354 269.291, 133.980 269.720 C 133.606 270.149, 127.826 276.926, 121.137 284.780 C 110.048 297.800, 108.901 298.860, 108.149 296.780 C 107.696 295.526, 104.697 286.738, 101.485 277.250 C 98.273 267.762, 95.152 260, 94.549 260 C 93.946 260, 87.163 265.659, 79.476 272.575 M 784.731 270.750 C 784.518 271.163, 780.779 280.828, 776.422 292.229 C 772.065 303.630, 768.208 312.967, 767.851 312.979 C 767.494 312.991, 761.644 306.506, 754.851 298.568 C 748.058 290.631, 742.275 284.111, 742 284.081 C 741.725 284.050, 736.325 293.914, 730 306 C 723.675 318.086, 718.255 327.980, 717.955 327.987 C 717.656 327.994, 710.587 321.700, 702.247 314 C 693.907 306.300, 686.859 300, 686.584 300 C 685.906 300, 656.003 341.294, 655.960 342.291 C 655.941 342.726, 662.129 348.756, 669.712 355.692 C 677.296 362.627, 684.647 369.356, 686.049 370.645 L 688.598 372.989 703.049 351.511 C 710.997 339.699, 717.768 330.026, 718.096 330.017 C 718.423 330.008, 724.945 337.028, 732.589 345.618 L 746.487 361.236 748.904 355.868 C 750.233 352.916, 754.849 342.939, 759.161 333.698 C 763.472 324.457, 767 316.469, 767 315.948 C 767 313.685, 769.253 315.820, 781.368 329.564 C 788.429 337.574, 794.483 343.850, 794.823 343.510 C 796.335 341.998, 810.830 299.523, 810.202 298.443 C 808.871 296.152, 786.499 270.121, 785.809 270.061 C 785.429 270.027, 784.944 270.337, 784.731 270.750 M 834 350.518 C 829.875 362.879, 826.211 372.994, 825.858 372.996 C 825.504 372.998, 818.529 366.928, 810.358 359.508 C 802.186 352.087, 795.221 346.012, 794.880 346.008 C 794.539 346.003, 790.538 355.788, 785.989 367.750 C 781.439 379.712, 777.218 390.473, 776.609 391.662 C 775.574 393.679, 774.541 392.760, 761.155 377.912 C 753.265 369.160, 746.515 362.002, 746.155 362.004 C 745.319 362.008, 720 406.607, 720 408.075 C 720 409.520, 752.032 444.500, 753.355 444.500 C 753.917 444.500, 759.129 433.373, 764.938 419.774 C 770.747 406.174, 775.794 395.149, 776.154 395.274 C 776.513 395.398, 784.303 402.411, 793.463 410.857 C 802.624 419.303, 810.282 426.052, 810.480 425.853 C 810.679 425.654, 814.213 414.244, 818.334 400.496 C 823.403 383.582, 826.258 375.535, 827.163 375.608 C 827.898 375.667, 837.050 381.167, 847.500 387.830 L 866.500 399.944 874.250 376.738 C 878.513 363.975, 881.992 353.075, 881.982 352.516 C 881.967 351.698, 843.040 327.945, 841.841 328.022 C 841.653 328.034, 838.125 338.157, 834 350.518 M 808.182 435.266 C 800.181 464.986, 795.923 482.356, 796.359 483.492 C 797.762 487.149, 844.731 519, 848.721 519 C 849.744 519, 855.350 458.076, 854.525 455.925 C 854.060 454.713, 845.550 449.130, 812.450 428.321 C 810.492 427.090, 810.299 427.404, 808.182 435.266 M 86.500 441.484 C 74.950 448.846, 65.367 455.507, 65.205 456.286 C 64.837 458.058, 70.976 518.309, 71.588 518.921 C 72.222 519.555, 122.141 485.724, 123.313 483.865 C 124 482.776, 122.210 474.621, 117.140 455.745 C 113.213 441.122, 110 428.898, 110 428.579 C 110 426.890, 105.635 429.287, 86.500 441.484" stroke="none" fill="black" fill-rule="evenodd"/>
</svg>