<svg xmlns="http://www.w3.org/2000/svg" width="600" height="669" viewBox="0 0 600 669" version="1.1">
	<path d="M 0 334.502 L 0 669.003 300.250 668.752 L 600.500 668.500 600.751 334.250 L 601.003 0 300.501 0 L 0 0 0 334.502 M 0.494 335 C 0.494 518.975, 0.609 594.237, 0.750 502.250 C 0.891 410.262, 0.891 259.737, 0.750 167.750 C 0.609 75.762, 0.494 151.025, 0.494 335 M 399.676 16.250 C 393.604 24.387, 391.177 33.174, 391.873 44.500 C 392.507 54.799, 392.412 60.921, 391.607 61.726 C 390.300 63.034, 388.966 60.168, 385.906 49.473 C 380.694 31.255, 376.916 25.545, 370.076 25.545 C 364.022 25.545, 361.946 28.562, 360.020 40.163 C 358.736 47.889, 359.007 55.308, 360.908 64.500 C 362.952 74.386, 362.996 75, 361.662 75 C 360.176 75, 356.583 67.197, 355.613 61.862 C 355.249 59.861, 353.935 56.711, 352.692 54.862 C 350.700 51.897, 349.843 51.465, 345.448 51.206 C 340.966 50.941, 340.039 51.275, 336.254 54.514 C 333.349 57.001, 331.699 59.415, 330.925 62.308 C 330.309 64.614, 329.423 66.966, 328.957 67.536 C 328.183 68.483, 327.677 89.391, 328.256 96.500 C 328.471 99.143, 328.202 99.476, 326 99.301 C 317.674 98.640, 316.898 98.747, 314.644 100.865 C 313.362 102.069, 311.567 105.736, 310.656 109.012 C 308.737 115.915, 308.397 131.997, 310.133 133.733 C 310.756 134.356, 310.976 135.621, 310.621 136.545 C 310.095 137.917, 309.168 138.102, 305.542 137.559 C 300.665 136.827, 296.938 138.202, 293.498 142.001 C 291.748 143.933, 291.479 145.760, 291.328 156.689 C 291.207 165.424, 290.752 169.671, 289.812 170.835 C 284.749 177.109, 281.686 184.445, 281.811 190 C 281.842 191.375, 281.964 195.325, 282.082 198.777 C 282.268 204.193, 281.968 205.405, 279.899 207.608 C 277.698 209.950, 277.496 211.005, 277.452 220.392 C 277.402 230.928, 278.734 236.577, 281.519 237.646 C 283.362 238.353, 283.421 239.932, 281.657 241.390 C 279.872 242.864, 275 257.703, 275 261.662 C 275 263.756, 275.991 265.850, 278 268 C 281.739 272.003, 281.739 272.602, 278.001 273.350 C 274.407 274.069, 271.009 279.051, 271.004 283.610 C 271 286.853, 274.629 293.069, 278.227 295.983 C 281.398 298.550, 279.558 300.521, 276.180 298.176 C 274.706 297.153, 272.150 295.643, 270.500 294.820 C 268.850 293.997, 261.650 290.284, 254.500 286.568 C 237.556 277.763, 237.350 277.658, 231.500 274.877 C 228.750 273.570, 225.150 271.536, 223.500 270.357 C 221.850 269.179, 218.925 267.362, 217 266.319 C 209.685 262.357, 182.068 241.308, 171.500 231.639 C 168.200 228.620, 164.231 225.103, 162.679 223.825 C 161.128 222.546, 158.653 220.219, 157.179 218.653 C 155.706 217.087, 153.193 214.612, 151.595 213.153 C 148.733 210.540, 143.721 205.417, 140.193 201.500 C 136.446 197.339, 130 188.269, 130 187.158 C 130 186.521, 129.609 186, 129.132 186 C 128.654 186, 125.758 180.907, 122.697 174.683 C 117.665 164.454, 114.213 156.084, 104.888 131.500 C 101.234 121.867, 99.105 117.413, 96.677 114.321 C 92.748 109.317, 91.945 112.720, 94.604 123.099 C 95.486 126.543, 96.565 130.066, 97.001 130.930 C 98.522 133.939, 101.022 140.586, 105.395 153.250 C 108.674 162.744, 109.441 166, 108.399 166 C 107.630 166, 107 165.573, 107 165.050 C 107 164.528, 105.537 162.013, 103.750 159.462 C 101.963 156.911, 100.041 154.076, 99.480 153.162 C 98.918 152.248, 97.118 149.523, 95.480 147.107 C 93.841 144.691, 92.047 141.991, 91.493 141.107 C 90.939 140.223, 88.375 136.297, 85.795 132.383 C 81.846 126.392, 76.431 115.791, 73.085 107.500 C 69.143 97.736, 67.684 96.054, 66.295 99.674 C 65.375 102.071, 67.608 113.790, 69.883 118.500 C 70.945 120.700, 72.475 124.075, 73.283 126 C 80.030 142.076, 82.543 147.709, 83.545 149 C 84.185 149.825, 85.998 152.975, 87.573 156 C 89.148 159.025, 92.139 164.119, 94.219 167.321 C 98.449 173.833, 98.512 174, 96.719 174 C 95.412 174, 85.519 164.226, 82.929 160.376 C 82.143 159.208, 79.538 155.448, 77.141 152.021 C 74.744 148.593, 71.545 143.474, 70.033 140.644 C 68.521 137.815, 66.567 134.150, 65.691 132.500 C 63.487 128.349, 60.329 120.999, 59.462 118 C 55.467 104.185, 48.977 103.088, 48.654 116.174 L 48.500 122.411 43.250 122.131 L 38 121.852 38.017 134.176 C 38.027 141.182, 38.675 149.520, 39.517 153.500 C 41.395 162.363, 41.377 162.999, 39.250 163.005 C 36.036 163.014, 31.943 167.295, 30.960 171.675 C 29.326 178.962, 31.189 185.304, 39.675 201.333 C 41.498 204.778, 41.925 206.475, 41.159 207.241 C 40.429 207.971, 39.671 207.991, 38.792 207.303 C 38.082 206.746, 36.074 205.811, 34.332 205.226 C 31.631 204.318, 30.903 204.450, 29.392 206.119 C 27.684 208.007, 27.758 208.335, 31.457 215.288 C 33.567 219.255, 36.074 223.400, 37.030 224.500 C 37.985 225.600, 39.495 227.943, 40.386 229.706 C 41.816 232.535, 41.842 233.417, 40.613 237.206 C 37.789 245.907, 37.809 246.676, 41.005 252.739 C 42.676 255.907, 44.855 259.184, 45.847 260.019 C 51.217 264.541, 51.738 267.827, 48.188 274.780 C 46.547 277.993, 46.574 278.176, 49.506 283.626 C 53.023 290.164, 58.614 297, 60.443 297 C 61.151 297, 62.916 297.933, 64.365 299.073 C 67.192 301.296, 67.867 305.512, 65.965 309.066 C 65.232 310.434, 65.275 311.658, 66.110 313.250 C 67.637 316.161, 74.710 322.774, 78.293 324.641 C 81.500 326.312, 82.997 329.543, 83.007 334.815 C 83.010 336.842, 83.844 339.760, 84.860 341.301 C 86.710 344.107, 94.646 349, 97.347 349 C 99.183 349, 100 351.160, 100 356.009 C 100 358.973, 100.604 360.330, 102.635 361.927 C 104.084 363.067, 105.772 364.007, 106.385 364.015 C 109.106 364.053, 110.393 366.067, 110.543 370.527 C 110.714 375.596, 111.903 376.960, 116.168 376.985 C 121.286 377.014, 122 377.822, 122 383.588 C 122 388.485, 122.222 389.018, 124.498 389.589 C 125.872 389.934, 127.672 389.956, 128.498 389.639 C 131.091 388.644, 133 390.087, 133 393.042 C 133 400.538, 137.171 403.570, 143.409 400.610 C 148.899 398.005, 150.388 398.406, 149.496 402.250 C 147.061 412.744, 151.556 415.108, 160.472 408.023 C 166.583 403.166, 166.700 403.397, 164.381 415.759 C 163.572 420.074, 165.305 422, 169.996 422 C 173.082 422, 174.829 421.068, 179.839 416.750 C 189.409 408.502, 191.944 406.764, 193.523 407.371 C 194.766 407.847, 194.683 408.448, 192.993 411.218 C 188.165 419.132, 186.248 425.445, 187.909 427.955 C 188.733 429.201, 189.605 429.223, 193.964 428.106 C 199.236 426.755, 202 427.567, 202 430.467 C 202 432.176, 205.321 435, 207.331 435 C 208.251 435, 211.816 433.589, 215.252 431.865 C 218.688 430.141, 222.615 428.217, 223.977 427.590 C 225.340 426.962, 227.505 424.885, 228.788 422.974 C 232.147 417.971, 233.037 418.156, 232.791 423.807 C 232.547 429.423, 234.046 432, 237.557 432 C 238.829 432, 241.085 432.462, 242.570 433.027 C 244.642 433.814, 245.812 433.698, 247.600 432.527 C 250.781 430.442, 254.908 430.621, 258.500 433 C 260.150 434.093, 262.911 434.990, 264.635 434.993 C 268.190 435.001, 277.181 432.502, 281.154 430.403 C 282.614 429.631, 284.320 429, 284.945 429 C 285.570 429, 287.416 428.013, 289.047 426.807 C 292.952 423.920, 295.189 425.593, 292.168 429.139 C 279.615 443.877, 275.323 449.301, 272.649 453.808 C 270.917 456.727, 268.912 460.102, 268.193 461.308 C 256.293 481.271, 250.686 491.315, 248.994 495.699 C 242.959 511.342, 231.438 526.611, 218.234 536.465 C 215.080 538.819, 211.551 541.660, 210.391 542.780 C 209.230 543.900, 206.305 545.814, 203.891 547.035 C 201.476 548.255, 195.862 551.663, 191.416 554.608 C 186.970 557.553, 181.622 560.678, 179.532 561.551 C 174.324 563.727, 165 570.637, 165 572.320 C 165 572.645, 163.876 574.568, 162.502 576.593 C 161.127 578.618, 159.508 582.125, 158.902 584.387 C 158.296 586.649, 157.156 589.175, 156.368 590 C 150.043 596.628, 147.521 601.979, 149.182 605.250 C 150.200 607.255, 151.741 607.429, 155.574 605.972 C 159.899 604.327, 159.700 605.709, 154.881 610.773 C 149.891 616.016, 145 622.961, 145 624.804 C 145 625.599, 147.010 626, 151 626 C 155.181 626, 157 626.385, 157 627.269 C 157 627.967, 155.629 631.801, 153.953 635.789 C 152.278 639.777, 151.167 643.461, 151.485 643.976 C 152.299 645.292, 155 644.075, 155 642.393 C 155 641.627, 155.675 641, 156.500 641 C 157.333 641, 158 641.889, 158 643 C 158 645.509, 159.621 645.520, 165.140 643.049 C 167.537 641.976, 169.821 641.421, 170.215 641.815 C 171.466 643.066, 171.401 648.364, 170.087 652.291 C 167.889 658.858, 168.869 659.361, 177.604 656.148 C 183.026 654.154, 186.568 652.073, 189.661 649.063 C 192.561 646.241, 194.584 645.010, 195.650 645.419 C 197.230 646.025, 205.994 641.614, 206.006 640.208 C 206.017 638.773, 215.058 630, 216.526 630 C 218.787 630, 228.755 619.440, 233.681 611.825 C 236.057 608.154, 238 604.812, 238 604.400 C 238 602.557, 246.392 586.787, 247.625 586.314 C 248.381 586.023, 249 585.362, 249 584.844 C 249 584.327, 250.800 581.193, 253 577.881 C 255.200 574.569, 257 571.647, 257 571.387 C 257 571.128, 257.939 569.923, 259.087 568.708 C 260.235 567.494, 262.042 564.816, 263.104 562.757 L 265.033 559.015 261.267 561.090 C 259.195 562.231, 255.971 564.253, 254.102 565.582 C 252.233 566.912, 250.342 568, 249.900 568 C 249.458 568, 249.860 565.938, 250.794 563.417 C 252.436 558.988, 252.427 558.786, 250.538 557.404 C 248.698 556.059, 248.678 555.814, 250.200 553.238 C 251.089 551.732, 252.133 548.813, 252.520 546.750 C 253.137 543.458, 252.984 543, 251.272 543 C 250.142 543, 248.746 544.157, 247.954 545.750 L 246.588 548.500 246.214 545.609 C 245.996 543.928, 246.393 542.375, 247.162 541.900 C 248.214 541.250, 248.230 540.830, 247.242 539.842 C 245.238 537.838, 245.706 535.772, 248 536.500 C 249.419 536.950, 250 536.680, 250 535.567 C 250 534.705, 250.405 534, 250.901 534 C 251.396 534, 252.629 531.999, 253.641 529.554 C 254.652 527.109, 256.312 524.890, 257.330 524.624 C 258.698 524.266, 259.004 523.589, 258.507 522.022 C 258.132 520.840, 258.367 519.262, 259.040 518.452 C 260.492 516.702, 262 516.559, 262 518.171 C 262 518.815, 262.748 520.169, 263.661 521.178 C 264.575 522.188, 265.812 523.963, 266.411 525.124 C 267.855 527.922, 276.892 531.437, 279.163 530.083 C 281.796 528.513, 290.646 527.618, 291.404 528.844 C 291.767 529.432, 292.689 529.673, 293.454 529.379 C 294.218 529.086, 295.808 529.362, 296.986 529.992 C 298.555 530.832, 299.485 530.843, 300.462 530.032 C 301.196 529.423, 302.853 528.721, 304.145 528.472 C 305.436 528.223, 306.629 527.613, 306.795 527.116 C 306.960 526.619, 307.987 526.445, 309.076 526.730 C 313.422 527.867, 328 520.595, 328 517.290 C 328 515.724, 331.489 513, 333.495 513 C 334.506 513, 335.039 512.706, 334.680 512.347 C 333.887 511.554, 339.861 507, 341.694 507 C 342.412 507, 343.012 506.663, 343.027 506.250 C 343.041 505.837, 344.847 503.475, 347.039 501 C 354.173 492.945, 353.717 493.589, 358.267 485.139 C 359.789 482.313, 361.701 480, 362.517 480 C 363.333 480, 364 479.137, 364 478.082 C 364 476.968, 365.468 475.256, 367.500 474 C 369.425 472.810, 371 471.199, 371 470.418 C 371 469.638, 371.337 469.053, 371.750 469.118 C 373.772 469.438, 375 468.867, 375 467.609 C 375 466.843, 376.688 465.538, 378.750 464.708 C 382.290 463.283, 390 456.561, 390 454.901 C 390 454.479, 390.926 453.841, 392.057 453.482 C 393.189 453.123, 394.528 451.742, 395.033 450.414 C 395.537 449.086, 396.412 448, 396.975 448 C 397.539 448, 398 447.052, 398 445.893 C 398 444.431, 398.459 443.962, 399.500 444.362 C 400.325 444.678, 401 444.553, 401 444.084 C 401 443.614, 404.488 439.790, 408.750 435.586 C 419.838 424.651, 420.578 424, 421.914 424 C 422.576 424, 422.854 423.573, 422.531 423.050 C 422.208 422.528, 422.969 421.561, 424.222 420.902 C 425.475 420.242, 427.772 418.645, 429.327 417.351 C 430.881 416.058, 433.019 415, 434.077 415 C 435.135 415, 436 414.490, 436 413.867 C 436 411.966, 440.062 409.079, 443.698 408.397 C 445.590 408.042, 447.665 406.907, 448.310 405.876 C 449.062 404.671, 450.635 404, 452.709 404 C 455.168 404, 455.800 403.642, 455.362 402.500 C 455.045 401.675, 455.254 401, 455.826 401 C 456.397 401, 457.151 400.100, 457.500 399 C 457.849 397.900, 458.615 397, 459.203 397 C 461.071 397, 465 392.256, 465 390 C 465 389.450, 465.536 389.113, 466.190 389.250 C 466.845 389.388, 469.641 385, 472.404 379.500 C 475.167 374, 477.820 369.225, 478.300 368.888 C 478.779 368.552, 479.103 368.102, 479.021 367.888 C 478.640 366.903, 480.298 364.066, 481 364.500 C 481.435 364.769, 482.048 364.316, 482.364 363.494 C 482.679 362.672, 482.475 362, 481.910 362 C 481.344 362, 481.160 361.550, 481.500 361 C 481.840 360.450, 481.618 360, 481.007 360 C 480.397 360, 480.983 358.987, 482.309 357.750 C 483.636 356.512, 485.010 354.581, 485.362 353.459 C 485.714 352.336, 487.802 349.429, 490.001 346.999 C 494.190 342.370, 495.506 339.327, 491.912 342.580 L 489.823 344.470 491.635 341.314 C 492.631 339.578, 493.808 338.381, 494.251 338.655 C 495.261 339.280, 501.159 333.067, 500.527 332.044 C 500.271 331.630, 501.140 330.277, 502.459 329.039 C 503.890 327.694, 504.615 326.160, 504.258 325.230 C 503.832 324.120, 504.041 323.907, 504.985 324.490 C 505.845 325.022, 506.070 324.922, 505.625 324.202 C 505.242 323.582, 506.934 321.259, 509.471 318.920 C 511.962 316.624, 514 313.893, 514 312.851 C 514 311.809, 515.013 310.561, 516.250 310.076 C 522.587 307.595, 535.325 304.677, 541.750 304.235 C 546.135 303.934, 548.998 303.295, 548.996 302.618 C 548.989 300.767, 540.631 293.375, 537.716 292.644 C 535.197 292.011, 534.188 290.146, 535.600 288.733 C 535.930 288.403, 538.068 289.488, 540.350 291.145 C 544.362 294.056, 544.752 294.134, 552.077 293.489 C 559.555 292.831, 559.677 292.858, 561.459 295.578 C 563.104 298.088, 563.122 298.438, 561.665 299.503 C 560.254 300.534, 560.411 300.928, 562.992 302.836 C 564.602 304.026, 566.182 305, 566.503 305 C 566.824 305, 568.283 306.109, 569.745 307.465 C 571.207 308.820, 572.608 309.725, 572.858 309.475 C 573.469 308.865, 569.885 301, 568.996 301 C 567.713 301, 562.195 295.188, 561.550 293.159 C 561.201 292.058, 559.519 290.110, 557.812 288.829 C 554.240 286.148, 545.945 277.591, 544.565 275.162 C 542.834 272.116, 536.536 266.804, 531.500 264.143 C 526.958 261.742, 525.538 261.510, 516 261.609 C 504.545 261.728, 494.215 263.874, 489.790 267.053 C 488.300 268.124, 486.725 269.008, 486.290 269.018 C 483.778 269.076, 474.521 277.130, 459.804 292.061 C 443.099 309.010, 440.957 310.526, 437.138 308.106 C 436.389 307.632, 435.430 305.351, 435.007 303.039 C 434.293 299.131, 434.698 296.262, 437.070 288.429 C 437.581 286.740, 438.003 281.340, 438.006 276.429 C 438.012 265.371, 438.965 261.969, 444.005 255 C 457.562 236.253, 458.009 235.186, 458.101 221.395 C 458.153 213.498, 456.400 208.127, 452.493 204.221 C 450.082 201.810, 450.025 201.429, 450.591 191.617 C 450.912 186.053, 451.771 179.250, 452.499 176.500 C 453.227 173.750, 454.079 169.700, 454.393 167.500 C 454.861 164.214, 455.210 113.992, 454.865 99.500 C 454.665 91.074, 456.125 66.991, 457.531 55.530 C 458.339 48.946, 459 39.211, 459 33.895 C 459 24.738, 458.871 24.146, 456.546 22.622 C 450.740 18.818, 445.865 24.283, 435.697 46 C 430.871 56.307, 430.568 57.505, 430.034 68.420 C 429.740 74.426, 429.050 79.480, 428.500 79.652 C 427.119 80.081, 423.250 70.659, 422.073 64 C 421.539 60.975, 420.158 54, 419.005 48.500 C 417.852 43, 416.456 36.250, 415.903 33.500 C 414.727 27.655, 410.588 18.466, 407.684 15.250 C 404.875 12.140, 402.525 12.434, 399.676 16.250 M 214.400 276.600 C 216.380 278.580, 218.001 280.493, 218.001 280.850 C 218.002 281.207, 219.127 282.807, 220.501 284.406 C 221.876 286.004, 223 287.744, 223 288.274 C 223 288.803, 224.350 290.774, 226 292.653 C 227.650 294.532, 229 296.846, 229 297.794 C 229 298.743, 229.843 300.046, 230.874 300.689 C 231.905 301.333, 233.041 303.027, 233.399 304.455 C 233.758 305.882, 235.839 308.893, 238.025 311.146 C 243.068 316.341, 243.197 318.685, 238.489 319.568 C 236.558 319.930, 234.724 320.637, 234.415 321.138 C 234.105 321.639, 234.421 321.926, 235.116 321.775 C 235.812 321.624, 236.553 322.288, 236.764 323.250 C 236.997 324.315, 236.554 325, 235.632 325 C 234.799 325, 233.861 325.416, 233.546 325.925 C 232.853 327.048, 234.984 332, 236.161 332 C 236.622 332, 237 332.900, 237 334 C 237 335.658, 237.667 336, 240.893 336 C 243.520 336, 244.983 336.514, 245.393 337.582 C 246.262 339.847, 246.153 340.212, 244.848 339.406 C 242.632 338.036, 244.912 347.104, 247.280 349.081 C 249.961 351.318, 250.895 351.436, 251.590 349.625 C 251.881 348.869, 253.190 348.250, 254.500 348.250 C 255.810 348.250, 257.119 348.869, 257.410 349.625 C 257.700 350.381, 257.389 351.007, 256.719 351.015 C 255.948 351.025, 256.051 351.387, 257 352 C 257.825 352.533, 258.100 352.976, 257.610 352.985 C 257.121 352.993, 258.379 354.125, 260.405 355.500 C 262.431 356.875, 264.519 358, 265.044 358 C 265.570 358, 266 358.450, 266 359 C 266 359.550, 266.337 359.887, 266.750 359.750 C 267.163 359.612, 267.693 359.950, 267.929 360.500 C 268.583 362.027, 270.748 364, 271.768 364 C 272.823 364, 275 368.410, 275 370.547 C 275 371.346, 275.436 372, 275.969 372 C 276.501 372, 276.707 371.399, 276.425 370.664 C 275.606 368.530, 279.669 369.340, 282.332 371.842 C 283.812 373.233, 285.398 373.842, 286.595 373.480 C 288.287 372.969, 288.318 373.040, 286.877 374.117 C 285.412 375.212, 285.488 375.548, 287.664 377.565 C 289.619 379.376, 290.848 379.696, 294.152 379.253 C 297.952 378.743, 298.186 378.851, 297.614 380.853 C 297.276 382.034, 296.745 383.900, 296.433 385 C 295.975 386.614, 297.105 387.731, 298.250 386.796 C 298.704 386.425, 303 390.428, 303 391.222 C 303 391.650, 301.677 392, 300.059 392 C 298.441 392, 296.869 392.403, 296.565 392.895 C 295.898 393.974, 298.800 395.241, 300.099 394.439 C 301.715 393.440, 305 395.074, 305 396.876 C 305 397.834, 305.622 399.468, 306.382 400.508 C 307.657 402.252, 308.102 402.291, 312.132 401.019 C 314.534 400.260, 316.954 399.306, 317.508 398.898 C 319.445 397.473, 327.524 395.029, 330.344 395.015 C 332.353 395.004, 333.341 395.586, 333.710 397 C 333.998 398.100, 334.521 399, 334.873 399 C 335.224 399, 336.135 400.407, 336.896 402.128 C 338.118 404.887, 338.077 405.599, 336.553 408.179 C 334.228 412.116, 335.109 414.559, 338.235 412.842 C 339.481 412.158, 341.306 411.463, 342.292 411.299 C 343.278 411.134, 345.050 410.100, 346.231 409 C 347.411 407.900, 348.919 407, 349.582 407 C 350.244 407, 351.022 406.384, 351.311 405.632 C 352.164 403.410, 364.339 395.918, 366 396.593 C 366.825 396.928, 370.514 397.377, 374.198 397.589 C 378.214 397.821, 382.218 398.717, 384.198 399.826 C 389.096 402.571, 395.588 403.164, 399.629 401.237 C 401.483 400.353, 403 398.902, 403 398.012 C 403 395.937, 397.195 388.004, 395.663 387.986 C 393.808 387.963, 386.194 380.641, 385.138 377.864 C 384.600 376.449, 384.549 374.730, 385.022 373.964 C 385.584 373.055, 385.210 372.135, 383.907 371.223 C 382.829 370.467, 382.012 369.321, 382.092 368.675 C 382.428 365.952, 381.732 365.257, 376.500 363.088 C 373.475 361.835, 371 360.454, 371 360.019 C 371 359.585, 368.637 358.466, 365.750 357.532 C 362.863 356.597, 356.450 353.905, 351.500 351.549 C 346.550 349.193, 341.264 346.973, 339.753 346.615 C 338.242 346.256, 333.962 344.059, 330.242 341.732 C 320.116 335.397, 319.768 335.190, 316.134 333.359 C 314.282 332.425, 311.449 329.842, 309.838 327.618 C 307.985 325.059, 305.046 322.718, 301.840 321.244 C 299.053 319.963, 296.116 318.259, 295.315 317.457 C 293.449 315.592, 291.536 315.607, 289.643 317.500 C 287.790 319.353, 287 319.403, 287 317.666 C 287 316.219, 280.935 309.715, 276.588 306.500 C 275.100 305.400, 272.447 303.275, 270.691 301.778 C 267.605 299.146, 233.193 281.603, 222 276.956 C 218.975 275.701, 216.072 274.297, 215.550 273.837 C 215.028 273.376, 213.745 273, 212.700 273 C 211.148 273, 211.460 273.660, 214.400 276.600 M 512.622 276.380 C 511.039 277.109, 509.148 279.121, 508.420 280.853 C 507.692 282.584, 506.512 284.005, 505.798 284.012 C 502.712 284.041, 513.863 289.237, 517.243 289.346 C 520.690 289.456, 530 285.499, 530 283.924 C 530 283.584, 529.212 282.375, 528.250 281.238 C 527.288 280.100, 526.045 278.413, 525.488 277.489 C 524.166 275.293, 516.430 274.626, 512.622 276.380 M 217.113 305.636 C 218.532 307.346, 221.311 307.433, 220.751 305.750 C 220.522 305.063, 219.355 304.449, 218.158 304.386 C 216.428 304.296, 216.213 304.552, 217.113 305.636 M 223 313.976 C 223 315.145, 229.640 315.392, 230.344 314.250 C 230.598 313.837, 229.050 313.377, 226.903 313.226 C 224.728 313.073, 223 313.405, 223 313.976 M 230 321.107 C 230 321.748, 229.264 321.934, 228.250 321.548 C 227.057 321.093, 226.824 321.208, 227.517 321.908 C 228.717 323.119, 233.230 322.180, 232.430 320.886 C 231.656 319.634, 230 319.784, 230 321.107 M 268 366 C 268 366.550, 268.423 367, 268.941 367 C 269.459 367, 270.160 366.550, 270.500 366 C 270.840 365.450, 270.416 365, 269.559 365 C 268.702 365, 268 365.450, 268 366 M 304 391.059 C 304 391.641, 304.450 391.840, 305 391.500 C 305.550 391.160, 306 390.684, 306 390.441 C 306 390.198, 305.550 390, 305 390 C 304.450 390, 304 390.477, 304 391.059 M 333.241 515.986 C 331.779 518.327, 331.596 522, 332.941 522 C 334.177 522, 334.623 521.159, 335.462 517.250 C 336.243 513.608, 335.123 512.972, 333.241 515.986" stroke="none" fill="black" fill-rule="evenodd"/>
</svg>